# Aspose.3D Wavefront OBJ Exporter
# Copyright 2004-2019 Aspose Pty Ltd.
# File created: 6/15/2020 9:54:07 PM

mtllib Chair.mtl

#
# object Cube.007
#

v 110.00000672590795147 389.99997449464785856 -110.00002754184882292
v 110.00000672590795147 389.99997775306212592 -90.0000237271518273
v -109.99999708878203824 389.99997775306212592 -90.0000237271518273
v -109.99999708878203824 389.99997449464711968 -110.00003231022131444
v 110.00000672590795147 509.9999783093407472 -110.00004232395851033
v 110.00000672590795147 509.99998156775495776 -90.00003850926151471
v -109.99999708878203824 509.99998156775336608 -90.00004804600649777
v -109.99999708878203824 509.99997830933995152 -110.00004709233100186
v -89.99999327408477264 -29.70012332664629184 90.00004083597174542
v -89.99999327408477264 -29.70012006823208136 110.00004465066874104
v -109.99999708878203824 -29.70012006823208136 110.00004465066874104
v -109.99999708878203824 -29.70012332664629184 90.00004083597174542
v -89.99998373733978944 190.2998804880407988 90.00000499342161219
v -90.00000281082975561 190.29988374645500924 110.00000880811862202
v -109.99999708878203824 190.29988374645500924 110.00000880811862202
v -109.99999708878203824 190.2998804880407988 90.00000499342161219
v -89.99999327408477264 80.29987858069723928 90.00002291469668591
v -89.99999327408477264 80.29988183911144972 110.00002672939368153
v -109.99999708878203824 80.29988183911144972 110.00002672939368153
v -109.99999708878203824 80.29987858069723928 90.00002291469668591
v 110.00000672590795147 -29.70012332664629184 90.00004083597174542
v 110.00000672590795147 -29.70012006823208136 110.00004465066874104
v 90.00000291121068585 -29.70012006823208136 110.00004465066874104
v 90.00000291121068585 -29.70012332664629184 90.00004083597174542
v 110.00000672590795147 190.2998804880407988 90.00000499342161219
v 110.00000672590795147 190.29988374645500924 110.00000880811862202
v 90.00000291121068585 190.29988374645500924 110.00000880811862202
v 90.00000291121068585 190.2998804880407988 90.00000499342161219
v -89.99999327408477264 -29.7001559107822288 -109.9999591640183496
v -89.99999327408477264 -29.7001526523680184 -89.99995534932133984
v -109.99999708878203824 -29.7001526523680184 -89.99995534932133984
v -109.99999708878203824 -29.70015591078299624 -109.99996393239084112
v -89.99998373733978944 190.2998479039056292 -109.99999023819599136
v -90.00000281082975561 190.29985116231986808 -89.99998642349899568
v -109.99999708878203824 190.29985116231830488 -89.99999596024397872
v -109.99999708878203824 190.29984790390486184 -109.99999500656848288
v 110.00000672590795147 -29.7001559107822288 -109.9999591640183496
v 110.00000672590795147 -29.7001526523680184 -89.99995534932133984
v 90.00000291121068585 -29.7001526523680184 -89.99995534932133984
v 90.00000291121068585 -29.70015591078299624 -109.99996393239084112
v 110.00000672590795147 190.2998479039056292 -109.99999023819599136
v 110.00000672590795147 190.29985116231986808 -89.99998642349899568
v 90.00000291121068585 190.29985116231830488 -89.99999596024397872
v 90.00000291121068585 190.29984790390486184 -109.99999500656848288
v 110.00000672590795147 189.99997449465777776 -109.99999495771290016
v 110.00000672590795147 190.0000103372079252 110.00000885697417629
v -109.99999708878203824 190.0000103372079252 110.00000885697417629
v -109.99999708878203824 189.99997449465777776 -109.99999495771290016
v 110.00000672590795147 209.99997830935478752 -109.99999821612711056
v 110.00000672590795147 210.00001415190493503 110.00000559855996584
v -109.99999708878203824 210.00001415190493503 110.00000559855996584
v -109.99999708878203824 209.99997830935478752 -109.99999821612711056
v -89.99999327408477264 209.98637891100895552 -109.99999821391149616
v -89.99999327408477264 209.98638216942316608 -89.99999439921450064
v -109.99999708878203824 209.98638216942316608 -89.99999439921450064
v -109.99999708878203824 209.98637891100818816 -110.00000298228398776
v -89.99998373733978944 390.36788304260483072 -110.00002283341623865
v -90.00000281082975561 390.367886301019098 -90.00001901871924303
v -109.99999708878203824 390.3678863010175064 -90.00002855546422608
v -109.99999708878203824 390.36788304260403496 -110.00002760178873018
v 110.00000672590795147 209.98637891100895552 -109.99999821391149616
v 110.00000672590795147 209.98638216942316608 -89.99999439921450064
v 90.00000291121068585 209.98638216942316608 -89.99999439921450064
v 90.00000291121068585 209.98637891100818816 -110.00000298228398776
v 110.00000672590795147 390.36788304260483072 -110.00002283341623865
v 110.00000672590795147 390.367886301019098 -90.00001901871924303
v 90.00000291121068585 390.3678863010175064 -90.00002855546422608
v 90.00000291121068585 390.36788304260403496 -110.00002760178873018
v 90.10717685133022314 289.9999744946528608 -110.00001124978086863
v 90.10717685133022314 289.9999777530670144 -90.0000074350838588
v -90.10716721420430986 289.9999777530670144 -90.0000074350838588
v -90.10716721420430986 289.99997449465206496 -110.00001601815336016
v 90.10717685133022314 309.99997830935058112 -110.00000973982258756
v 90.10717685133022314 309.99998156776484848 -90.00000592512557773
v -90.10716721420430986 309.9999815677632568 -90.00001546187056078
v -90.10716721420430986 309.99997830934984224 -110.00001450819507908
# 76 vertices

vn 0 -0.99999999999998656 1.62920679391831E-07
vn 0 -0.99999999999998656 1.62920679391831E-07
vn 0 -0.99999999999998656 1.62920679391831E-07
vn 0 -0.99999999999998656 1.62920679391831E-07
vn -2.4344609883542E-08 0.99999999999998656 -1.62920679391831E-07
vn -2.4344609883542E-08 0.99999999999998656 -1.62920679391831E-07
vn -2.4344609883542E-08 0.99999999999998656 -1.62920679391831E-07
vn -2.4344609883542E-08 0.99999999999998656 -1.62920679391831E-07
vn 0.9999999403953552 0 0
vn 0.9999999403953552 0 0
vn 0.9999999403953552 0 0
vn 0.9999999403953552 0 0
vn -2.16744240333355E-08 1.62920679391831E-07 0.99999999999998656
vn -2.16744240333355E-08 1.62920679391831E-07 0.99999999999998656
vn -2.16744240333355E-08 1.62920679391831E-07 0.99999999999998656
vn -2.16744240333355E-08 1.62920679391831E-07 0.99999999999998656
vn -0.9999999403953552 0 0
vn -0.9999999403953552 0 0
vn -0.9999999403953552 0 0
vn -0.9999999403953552 0 0
vn 2.16744204806218E-08 -1.62920679391831E-07 -0.99999999999998656
vn 2.16744204806218E-08 -1.62920679391831E-07 -0.99999999999998656
vn 2.16744204806218E-08 -1.62920679391831E-07 -0.99999999999998656
vn 2.16744204806218E-08 -1.62920679391831E-07 -0.99999999999998656
vn 0 -0.99999999999998656 1.62920679391831E-07
vn 0 -0.99999999999998656 1.62920679391831E-07
vn 0 -0.99999999999998656 1.62920679391831E-07
vn 0 -0.99999999999998656 1.62920679391831E-07
vn 0 0.99999999999998656 -1.62920679391831E-07
vn 0 0.99999999999998656 -1.62920679391831E-07
vn 0 0.99999999999998656 -1.62920679391831E-07
vn 0 0.99999999999998656 -1.62920679391831E-07
vn 1 1.69498133595426E-13 1.04037212622642E-06
vn 1 1.69498133595426E-13 1.04037212622642E-06
vn 1 1.69498133595426E-13 1.04037212622642E-06
vn 1 1.69498133595426E-13 1.04037212622642E-06
vn 0 1.62920679391831E-07 0.99999999999998656
vn 0 1.62920679391831E-07 0.99999999999998656
vn 0 1.62920679391831E-07 0.99999999999998656
vn 0 1.62920679391831E-07 0.99999999999998656
vn -1 0 0
vn -1 0 0
vn -1 0 0
vn -1 0 0
vn 0 -1.62920679391831E-07 -0.99999999999998656
vn 0 -1.62920679391831E-07 -0.99999999999998656
vn 0 -1.62920679391831E-07 -0.99999999999998656
vn 0 -1.62920679391831E-07 -0.99999999999998656
vn 0 -1.62920669621869E-07 -0.99999994039534192
vn 0 -1.62920669621869E-07 -0.99999994039534192
vn 0 -1.62920669621869E-07 -0.99999994039534192
vn 0 -1.62920669621869E-07 -0.99999994039534192
vn -1 0 0
vn -1 0 0
vn -1 0 0
vn -1 0 0
vn 0 1.62920679391831E-07 0.99999999999998656
vn 0 1.62920679391831E-07 0.99999999999998656
vn 0 1.62920679391831E-07 0.99999999999998656
vn 0 1.62920679391831E-07 0.99999999999998656
vn 1 0 0
vn 1 0 0
vn 1 0 0
vn 1 0 0
vn 0 -0.99999999999998656 1.62920679391831E-07
vn 0 -0.99999999999998656 1.62920679391831E-07
vn 0 -0.99999999999998656 1.62920679391831E-07
vn 0 -0.99999999999998656 1.62920679391831E-07
vn 0 0.99999999999998656 -1.62920679391831E-07
vn 0 0.99999999999998656 -1.62920679391831E-07
vn 0 0.99999999999998656 -1.62920679391831E-07
vn 0 0.99999999999998656 -1.62920679391831E-07
vn 1 0 0
vn 1 0 0
vn 1 0 0
vn 1 0 0
vn 0 1.62920679391831E-07 0.99999999999998656
vn 0 1.62920679391831E-07 0.99999999999998656
vn 0 1.62920679391831E-07 0.99999999999998656
vn 0 1.62920679391831E-07 0.99999999999998656
vn -1 0 0
vn -1 0 0
vn -1 0 0
vn -1 0 0
vn 0 -1.62920679391831E-07 -0.99999999999998656
vn 0 -1.62920679391831E-07 -0.99999999999998656
vn 0 -1.62920679391831E-07 -0.99999999999998656
vn 0 -1.62920679391831E-07 -0.99999999999998656
vn 0 -0.99999999999998656 1.62920679391831E-07
vn 0 -0.99999999999998656 1.62920679391831E-07
vn 0 -0.99999999999998656 1.62920679391831E-07
vn 0 -0.99999999999998656 1.62920679391831E-07
vn -2.22212346301376E-08 0.99999999999998656 -1.62920679391831E-07
vn -2.22212346301376E-08 0.99999999999998656 -1.62920679391831E-07
vn -2.22212346301376E-08 0.99999999999998656 -1.62920679391831E-07
vn -2.22212346301376E-08 0.99999999999998656 -1.62920679391831E-07
vn 1 1.48827795460067E-13 1.04037212622642E-06
vn 1 1.48827795460067E-13 1.04037212622642E-06
vn 1 1.48827795460067E-13 1.04037212622642E-06
vn 1 1.48827795460067E-13 1.04037212622642E-06
vn -2.384186927884E-07 1.62920679391831E-07 0.99999999999998656
vn -2.384186927884E-07 1.62920679391831E-07 0.99999999999998656
vn -2.384186927884E-07 1.62920679391831E-07 0.99999999999998656
vn -2.384186927884E-07 1.62920679391831E-07 0.99999999999998656
vn -1 0 0
vn -1 0 0
vn -1 0 0
vn -1 0 0
vn 2.3841845120387E-07 -1.62920669621869E-07 -0.99999994039534192
vn 2.3841845120387E-07 -1.62920669621869E-07 -0.99999994039534192
vn 2.3841845120387E-07 -1.62920669621869E-07 -0.99999994039534192
vn 2.3841845120387E-07 -1.62920669621869E-07 -0.99999994039534192
vn 0 -0.99999999999998656 1.62920679391831E-07
vn 0 -0.99999999999998656 1.62920679391831E-07
vn 0 -0.99999999999998656 1.62920679391831E-07
vn 0 -0.99999999999998656 1.62920679391831E-07
vn -2.22212293010671E-08 0.99999999999998656 -1.62920679391831E-07
vn -2.22212293010671E-08 0.99999999999998656 -1.62920679391831E-07
vn -2.22212293010671E-08 0.99999999999998656 -1.62920679391831E-07
vn -2.22212293010671E-08 0.99999999999998656 -1.62920679391831E-07
vn 1 0 0
vn 1 0 0
vn 1 0 0
vn 1 0 0
vn -2.38418550679853E-07 1.62920679391831E-07 0.99999999999998656
vn -2.38418550679853E-07 1.62920679391831E-07 0.99999999999998656
vn -2.38418550679853E-07 1.62920679391831E-07 0.99999999999998656
vn -2.38418550679853E-07 1.62920679391831E-07 0.99999999999998656
vn -1 0 0
vn -1 0 0
vn -1 0 0
vn -1 0 0
vn 2.38418550679853E-07 -1.62920679391831E-07 -0.99999999999998656
vn 2.38418550679853E-07 -1.62920679391831E-07 -0.99999999999998656
vn 2.38418550679853E-07 -1.62920679391831E-07 -0.99999999999998656
vn 2.38418550679853E-07 -1.62920679391831E-07 -0.99999999999998656
vn 0 -0.99999999999998656 1.62920679391831E-07
vn 0 -0.99999999999998656 1.62920679391831E-07
vn 0 -0.99999999999998656 1.62920679391831E-07
vn 0 -0.99999999999998656 1.62920679391831E-07
vn 0 0.99999999999998656 -1.62920679391831E-07
vn 0 0.99999999999998656 -1.62920679391831E-07
vn 0 0.99999999999998656 -1.62920679391831E-07
vn 0 0.99999999999998656 -1.62920679391831E-07
vn 1 0 0
vn 1 0 0
vn 1 0 0
vn 1 0 0
vn 0 1.62920679391831E-07 0.99999999999998656
vn 0 1.62920679391831E-07 0.99999999999998656
vn 0 1.62920679391831E-07 0.99999999999998656
vn 0 1.62920679391831E-07 0.99999999999998656
vn -1 0 0
vn -1 0 0
vn -1 0 0
vn -1 0 0
vn 0 -1.62920679391831E-07 -0.99999999999998656
vn 0 -1.62920679391831E-07 -0.99999999999998656
vn 0 -1.62920679391831E-07 -0.99999999999998656
vn 0 -1.62920679391831E-07 -0.99999999999998656
vn 0 -0.99999999999998656 1.62920679391831E-07
vn 0 -0.99999999999998656 1.62920679391831E-07
vn 0 -0.99999999999998656 1.62920679391831E-07
vn 0 -0.99999999999998656 1.62920679391831E-07
vn 6.94655852839787E-07 0.99999999999998656 -1.62920679391831E-07
vn 6.94655852839787E-07 0.99999999999998656 -1.62920679391831E-07
vn 6.94655852839787E-07 0.99999999999998656 -1.62920679391831E-07
vn 6.94655852839787E-07 0.99999999999998656 -1.62920679391831E-07
vn 1 1.12607185280728E-13 8.45917782044118E-07
vn 1 1.12607185280728E-13 8.45917782044118E-07
vn 1 1.12607185280728E-13 8.45917782044118E-07
vn 1 1.12607185280728E-13 8.45917782044118E-07
vn -2.384186927884E-07 1.62920679391831E-07 0.99999999999998656
vn -2.384186927884E-07 1.62920679391831E-07 0.99999999999998656
vn -2.384186927884E-07 1.62920679391831E-07 0.99999999999998656
vn -2.384186927884E-07 1.62920679391831E-07 0.99999999999998656
vn -1 0 0
vn -1 0 0
vn -1 0 0
vn -1 0 0
vn 2.38418465414725E-07 -1.62920669621869E-07 -0.99999994039534192
vn 2.38418465414725E-07 -1.62920669621869E-07 -0.99999994039534192
vn 2.38418465414725E-07 -1.62920669621869E-07 -0.99999994039534192
vn 2.38418465414725E-07 -1.62920669621869E-07 -0.99999994039534192
vn 0 -0.99999999999998656 1.62920679391831E-07
vn 0 -0.99999999999998656 1.62920679391831E-07
vn 0 -0.99999999999998656 1.62920679391831E-07
vn 0 -0.99999999999998656 1.62920679391831E-07
vn 6.94655682309531E-07 0.99999999999998656 -1.62920679391831E-07
vn 6.94655682309531E-07 0.99999999999998656 -1.62920679391831E-07
vn 6.94655682309531E-07 0.99999999999998656 -1.62920679391831E-07
vn 6.94655682309531E-07 0.99999999999998656 -1.62920679391831E-07
vn 1 0 0
vn 1 0 0
vn 1 0 0
vn 1 0 0
vn -2.38418579101563E-07 1.62920679391831E-07 0.99999999999998656
vn -2.38418579101563E-07 1.62920679391831E-07 0.99999999999998656
vn -2.38418579101563E-07 1.62920679391831E-07 0.99999999999998656
vn -2.38418579101563E-07 1.62920679391831E-07 0.99999999999998656
vn -1 0 0
vn -1 0 0
vn -1 0 0
vn -1 0 0
vn 2.38418579101563E-07 -1.62920679391831E-07 -0.99999999999998656
vn 2.38418579101563E-07 -1.62920679391831E-07 -0.99999999999998656
vn 2.38418579101563E-07 -1.62920679391831E-07 -0.99999999999998656
vn 2.38418579101563E-07 -1.62920679391831E-07 -0.99999999999998656
vn 0 -0.99999999999998656 1.62920679391831E-07
vn 0 -0.99999999999998656 1.62920679391831E-07
vn 0 -0.99999999999998656 1.62920679391831E-07
vn 0 -0.99999999999998656 1.62920679391831E-07
vn -2.971903789728E-08 0.99999999999998656 -1.62920679391831E-07
vn -2.971903789728E-08 0.99999999999998656 -1.62920679391831E-07
vn -2.971903789728E-08 0.99999999999998656 -1.62920679391831E-07
vn -2.971903789728E-08 0.99999999999998656 -1.62920679391831E-07
vn 1 0 0
vn 1 0 0
vn 1 0 0
vn 1 0 0
vn -2.64594497423332E-08 1.62920679391831E-07 0.99999999999998656
vn -2.64594497423332E-08 1.62920679391831E-07 0.99999999999998656
vn -2.64594497423332E-08 1.62920679391831E-07 0.99999999999998656
vn -2.64594497423332E-08 1.62920679391831E-07 0.99999999999998656
vn -1 0 0
vn -1 0 0
vn -1 0 0
vn -1 0 0
vn 2.64594497423332E-08 -1.62920679391831E-07 -0.99999999999998656
vn 2.64594497423332E-08 -1.62920679391831E-07 -0.99999999999998656
vn 2.64594497423332E-08 -1.62920679391831E-07 -0.99999999999998656
vn 2.64594497423332E-08 -1.62920679391831E-07 -0.99999999999998656
# 232 vertex normals

vt 0.27801090478897096 0.72198909521102912 0
vt 0.72198909521102912 0.72198909521102912 0
vt 0.27801090478897096 0.27801090478897096 0
vt 0.72198909521102912 0.47329539060592648 0
vt 0.72198909521102912 0.27801090478897096 0
vt 0.27801090478897096 0.47329539060592648 0
vt 0.72198909521102912 0.52670460939407352 0
vt 0.27801090478897096 0.52670460939407352 0
# 8 texture coords

g Cube.007
usemtl Material.010
s 1
f 1/3/1 2/5/2 3/2/3 4/1/4
f 5/3/5 8/5/6 7/2/7 6/1/8
f 1/3/9 5/5/10 6/2/11 2/1/12
f 2/3/13 6/5/14 7/2/15 3/1/16
f 3/3/17 7/5/18 8/2/19 4/1/20
f 5/3/21 1/5/22 4/2/23 8/1/24
f 9/3/25 10/5/26 11/2/27 12/1/28
f 13/3/29 16/5/30 15/2/31 14/1/32
f 17/6/33 13/4/34 14/7/35 18/8/36
f 18/6/37 14/4/38 15/7/39 19/8/40
f 19/6/41 15/4/42 16/7/43 20/8/44
f 17/6/45 9/4/46 12/7/47 20/8/48
f 13/6/49 17/4/50 20/7/51 16/8/52
f 11/6/53 19/4/54 20/7/55 12/8/56
f 10/6/57 18/4/58 19/7/59 11/8/60
f 9/6/61 17/4/62 18/7/63 10/8/64
f 21/3/65 22/5/66 23/2/67 24/1/68
f 25/3/69 28/5/70 27/2/71 26/1/72
f 21/6/73 25/4/74 26/7/75 22/8/76
f 22/6/77 26/4/78 27/7/79 23/8/80
f 23/6/81 27/4/82 28/7/83 24/8/84
f 25/6/85 21/4/86 24/7/87 28/8/88
f 29/3/89 30/5/90 31/2/91 32/1/92
f 33/3/93 36/5/94 35/2/95 34/1/96
f 29/6/97 33/4/98 34/7/99 30/8/100
f 30/6/101 34/4/102 35/7/103 31/8/104
f 31/6/105 35/4/106 36/7/107 32/8/108
f 33/6/109 29/4/110 32/7/111 36/8/112
f 37/3/113 38/5/114 39/2/115 40/1/116
f 41/3/117 44/5/118 43/2/119 42/1/120
f 37/6/121 41/4/122 42/7/123 38/8/124
f 38/6/125 42/4/126 43/7/127 39/8/128
f 39/6/129 43/4/130 44/7/131 40/8/132
f 41/6/133 37/4/134 40/7/135 44/8/136
f 45/3/137 46/5/138 47/2/139 48/1/140
f 49/3/141 52/5/142 51/2/143 50/1/144
f 45/3/145 49/5/146 50/2/147 46/1/148
f 46/3/149 50/5/150 51/2/151 47/1/152
f 47/3/153 51/5/154 52/2/155 48/1/156
f 49/3/157 45/5/158 48/2/159 52/1/160
f 53/3/161 54/5/162 55/2/163 56/1/164
f 57/3/165 60/5/166 59/2/167 58/1/168
f 53/3/169 57/5/170 58/2/171 54/1/172
f 54/3/173 58/5/174 59/2/175 55/1/176
f 55/3/177 59/5/178 60/2/179 56/1/180
f 57/3/181 53/5/182 56/2/183 60/1/184
f 61/3/185 62/5/186 63/2/187 64/1/188
f 65/3/189 68/5/190 67/2/191 66/1/192
f 61/3/193 65/5/194 66/2/195 62/1/196
f 62/3/197 66/5/198 67/2/199 63/1/200
f 63/3/201 67/5/202 68/2/203 64/1/204
f 65/3/205 61/5/206 64/2/207 68/1/208
f 69/3/209 70/5/210 71/2/211 72/1/212
f 73/3/213 76/5/214 75/2/215 74/1/216
f 69/3/217 73/5/218 74/2/219 70/1/220
f 70/3/221 74/5/222 75/2/223 71/1/224
f 71/3/225 75/5/226 76/2/227 72/1/228
f 73/3/229 69/5/230 72/2/231 76/1/232
#58 polygons

